OpenSim_Sub08_EMGBaseline_GRF.mot
version=1
nRows=58
nColumns=19
inDegrees=no
endheader
time	lFx	lFy	lFz	lCOPx	lCOPy	lCOPz	rFx	rFy	rFz	rCOPx	rCOPy	rCOPz	lMx	lMy	lMz	rMx	rMy	rMz
16.63000000	3.42358153	526.33163117	39.45307164	0.66817707	0	-0.60558482	-0.10792363	-0.05981285	0.27406311	-0.00000006	0	0.00000003	0	1.38963749	0	0	0.00000003	-0.00000000
16.64000000	4.88364261	527.81958129	39.29328751	0.66342844	0	-0.60576915	-0.10563485	0.00708243	0.27205172	-0.00000010	0	0.00000005	0	1.38167144	0	0	0.00000002	-0.00000000
16.65000000	6.58864967	529.69935314	39.38020275	0.65826932	0	-0.60601669	-0.10443407	0.06991037	0.24483915	-0.00000008	0	0.00000004	0	1.40543587	0	0	-0.00000004	-0.00000000
16.66000000	8.57662721	531.74619751	39.69901343	0.65294488	0	-0.60631907	-0.10993218	0.10918892	0.21165232	0.00000015	0	-0.00000007	0	1.43572746	0	0	-0.00000021	0.00000000
16.67000000	10.79552014	533.85135130	40.05312952	0.64766189	0	-0.60658445	-0.10501794	0.02040514	0.23645797	0.00000077	0	-0.00000035	0	1.45692777	0	0	-0.00000049	-0.00000000
16.68000000	13.23751899	536.08848661	40.21099122	0.64232361	0	-0.60673256	-0.08838007	-0.12894560	0.27753807	0.00000179	0	-0.00000081	0	1.52879805	0	0	-0.00000068	0.00000000
16.69000000	15.97342443	538.14815821	40.17563119	0.63665745	0	-0.60674246	-0.06919252	-0.26260426	0.29379142	0.00000254	0	-0.00000117	0	1.68268807	0	0	-0.00000025	-0.00000000
16.70000000	18.93593441	539.67065663	40.16803188	0.63077552	0	-0.60665205	-0.04667730	-0.32020559	0.30815793	0.00000098	0	-0.00000050	0	1.83587020	0	0	0.00000182	0.00000000
16.71000000	21.87523513	540.62256604	40.30160666	0.62504696	0	-0.60655508	-0.03368833	-0.36385547	0.29170910	-0.00000663	0	0.00000291	0	1.97109045	0	0	0.00000653	-0.00000000
16.72000000	24.67778603	540.88586103	40.57954355	0.61935194	0	-0.60650694	-0.00709051	-0.38605880	0.26859688	-0.00002399	0	0.00001080	0	2.08708061	0	0	0.00001307	-0.00000000
16.73000000	27.48251271	540.10843553	40.92763625	0.61346519	0	-0.60647701	0.00757699	-0.32013132	0.27509971	-0.00004824	0	0.00002198	0	2.14882349	0	0	0.00001522	0.00000000
16.74000000	30.42735899	537.89177463	41.11494482	0.60742645	0	-0.60643641	0.00532927	-0.21798432	0.29352477	-0.00005660	0	0.00002628	0	2.16342869	0	0	-0.00000299	0.00000000
16.75000000	33.44562705	533.97284214	40.96288357	0.60145723	0	-0.60635316	0.01142481	-0.15128859	0.29921816	0.00000982	0	-0.00000294	0	2.21071528	0	0	-0.00006687	-0.00000000
16.76000000	36.33050162	528.25167861	40.50008774	0.59554190	0	-0.60617231	0.04370253	-0.15766057	0.31846487	0.00024463	0	-0.00010865	0	2.30459249	0	0	-0.00019323	-0.00000000
16.77000000	39.08825522	520.69691333	39.76038696	0.58933118	0	-0.60585022	0.08649611	-0.17556158	0.33574260	0.00071108	0	-0.00032120	0	2.41164827	0	0	-0.00033747	-0.00000000
16.78000000	41.78983553	511.26974913	38.72228514	0.58271502	0	-0.60542367	0.09425464	-0.17009295	0.31125834	0.00124747	0	-0.00057049	0	2.53751025	0	0	-0.00029958	-0.00000000
16.79000000	44.39397099	499.95718627	37.34051606	0.57632530	0	-0.60504519	0.05038608	-0.21685040	0.29466127	0.00111952	0	-0.00052712	0	2.69460399	0	0	0.00036326	0.00000000
16.80000000	46.65665828	486.62904547	35.56962082	0.57060149	0	-0.60476953	-0.06608257	-0.37799017	0.34449477	-0.00130580	0	0.00055086	0	2.89634968	0	0	0.00224714	0.00000000
16.81000000	48.43987922	471.22128760	33.44570493	0.56512137	0	-0.60452425	-0.25199580	-0.76002415	0.35337610	-0.00823935	0	0.00368376	0	3.11990764	0	0	0.00549627	-0.00000000
16.82000000	49.84021557	453.73297363	30.98142849	0.55915906	0	-0.60424324	-0.51385413	-1.36028513	0.26845502	-0.02025162	0	0.00917934	0	3.38373233	0	0	0.00829144	0.00000000
16.83000000	50.96068460	434.22370349	28.40228214	0.55260460	0	-0.60392032	-0.70590804	-1.77754039	0.15144655	-0.03070429	0	0.01410994	0	3.59356736	0	0	0.00452119	0.00000000
16.84000000	51.70436376	412.71655784	25.90151347	0.54598804	0	-0.60355677	-0.34523710	-0.62061880	0.04409807	-0.01712845	0	0.00835342	0	3.67291441	0	0	-0.01761046	-0.00000000
16.85000000	51.87115972	389.08498969	23.50288965	0.53968533	0	-0.60310153	1.53721940	4.62908440	0.20130881	0.06403343	0	-0.02795127	0	3.62922332	0	0	-0.07101180	0
16.86000000	51.33525742	363.12151967	21.16262981	0.53357552	0	-0.60249124	5.87936834	16.67399440	0.94784154	0.26081852	0	-0.11717426	0	3.46979415	0	0	-0.15043856	-0.00000000
16.87000000	49.98988716	334.65653949	18.80119126	0.52750390	0	-0.60171607	11.04374601	35.61831555	2.43813303	0.55664759	0	-0.25334476	0	3.19611787	0	0	-0.19031611	0.00000000
16.88000000	47.75012132	303.71574239	16.35989127	0.52153246	0	-0.60084855	12.59459297	57.64033953	3.83119061	0.80898879	0	-0.37345042	0	2.84157208	0	0	-0.12219455	0.00000000
16.89000000	44.62722098	270.45384163	13.87522996	0.51572359	0	-0.60002364	9.01597852	79.20144351	4.42041331	0.93670879	0	-0.43634165	0	2.37579228	0	0	-0.07313358	-0.00000000
16.90000000	40.73276485	235.27596968	11.47804188	0.50992197	0	-0.59957541	2.85453442	100.30258661	5.02112859	0.97290940	0	-0.45533060	0	1.71568133	0	0	-0.12553549	0
16.91000000	35.93622965	199.36352213	9.39828174	0.50408036	0	-0.60015913	-3.12345276	122.98164959	6.13957770	0.96747133	0	-0.45375272	0	0.85024722	0	0	-0.28125194	0
16.92000000	30.29231509	164.51528343	7.87819882	0.49910706	0	-0.60250932	-7.86384906	148.01915482	7.32289546	0.95168930	0	-0.44705303	0	-0.13869579	0	0	-0.52105169	0.00000000
16.93000000	24.31627653	132.61681820	7.00431993	0.49595100	0	-0.60699228	-11.64246137	174.16789963	7.94339814	0.93781223	0	-0.44179596	0	-1.08039149	0	0	-0.77767792	0
16.94000000	18.79174402	104.82719867	6.65481187	0.49289832	0	-0.61181871	-14.83582758	199.73908543	7.16991493	0.92796593	0	-0.43895055	0	-1.87815905	0	0	-0.94290541	0
16.95000000	14.32169498	81.34338291	6.51326880	0.48523275	0	-0.60974001	-17.44307737	223.52230750	4.33708697	0.92157180	0	-0.43739427	0	-2.44385740	0	0	-1.01558427	0
16.96000000	10.87036382	62.14838001	6.22453758	0.46587528	0	-0.58531479	-19.50359267	244.62490043	-0.28492553	0.91703589	0	-0.43608296	0	-2.60861064	0	0	-1.02286883	0
16.97000000	8.13811254	46.83908392	5.62018074	0.42406375	0	-0.51844709	-21.19597080	263.04914406	-6.14784710	0.91326580	0	-0.43458828	0	-2.27075180	0	0	-1.02178930	0
16.98000000	5.95089003	34.54171215	4.77229978	0.34839804	0	-0.40380139	-22.54258375	279.45716567	-12.55536143	0.90952604	0	-0.43290509	0	-1.65984594	0	0	-1.08613987	0
16.99000000	4.26699267	24.28591090	3.76449854	0.23499050	0	-0.25757630	-23.46756320	294.73550196	-18.50896246	0.90545899	0	-0.43113268	0	-0.96327809	0	0	-1.20868249	0.00000000
17	3.16139779	15.50200976	2.64254343	0.11352309	0	-0.11790433	-23.98697704	309.65970890	-23.30178681	0.90091271	0	-0.42943998	0	-0.35909757	0	0	-1.34307542	0
17.01000000	2.82561606	8.25366901	1.41540326	0.03008493	0	-0.02770308	-24.30184562	325.08476619	-26.87806938	0.89597277	0	-0.42789517	0	-0.03568161	0	0	-1.45105407	0.00000000
17.02000000	3.20073260	3.13294200	0.16911447	-0.00566933	0	0.00874616	-24.98703158	342.08022409	-29.65767421	0.89117881	0	-0.42647237	0	0.06591779	0	0	-1.55901476	0
17.03000000	3.71241005	0.58713707	-0.68492009	-0.01250741	0	0.01436131	-26.72493065	361.62833913	-32.19660998	0.88695343	0	-0.42513785	0	0.06258505	0	0	-1.73740677	-0.00000000
17.04000000	3.99286847	-0.09081284	-0.93699099	-0.00859445	0	0.00927854	-29.72609202	383.81435396	-34.62455192	0.88330428	0	-0.42398797	0	0.03310265	0	0	-1.98103091	0
17.05000000	4.06059522	0.05422436	-1.06182817	-0.00363456	0	0.00369750	-33.65644455	408.63188652	-36.36596353	0.88005246	0	-0.42310991	0	0.01019847	0	0	-2.27079627	0
17.06000000	4.01880644	0.40491282	-1.04310506	-0.00066542	0	0.00053578	-38.49403369	436.25655826	-37.65432120	0.87707922	0	-0.42253015	0	-0.00050289	0	0	-2.57237351	-0.00000000
17.07000000	3.95990925	0.60445706	-1.06309881	0.00042173	0	-0.00054291	-43.47442544	465.67248952	-38.38491703	0.87383574	0	-0.42229207	0	-0.00309523	0	0	-2.87427503	0
17.08000000	3.91497482	0.63780940	-1.10098587	0.00051569	0	-0.00057925	-47.28116552	494.17100600	-38.42218273	0.87032544	0	-0.42230592	0	-0.00236426	0	0	-3.15653333	0
17.09000000	3.85399114	0.60366083	-1.08924386	0.00030478	0	-0.00032410	-49.41227932	518.59234861	-37.98027979	0.86648202	0	-0.42239537	0	-0.00109094	0	0	-3.44701992	-0.00000000
17.10000000	3.77131291	0.58043488	-1.08646581	0.00010986	0	-0.00010869	-50.05085828	537.34960513	-37.54758245	0.86224375	0	-0.42240765	0	-0.00025654	0	0	-3.74587786	0
17.11000000	3.69921228	0.60799350	-1.04958056	0.00000825	0	-0.00000220	-49.57720144	550.66354207	-37.72543979	0.85746012	0	-0.42229964	0	0.00008076	0	0	-3.99013234	0.00000000
17.12000000	3.67224306	0.63755957	-1.01065398	-0.00002232	0	0.00002689	-48.49147322	559.63002127	-38.75749243	0.85236950	0	-0.42206397	0	0.00013280	0	0	-4.17961238	0
17.13000000	3.66534197	0.66596802	-0.96904898	-0.00002018	0	0.00002227	-47.25838647	565.11260545	-40.32441528	0.84714266	0	-0.42172651	0	0.00008583	0	0	-4.32599589	-0.00000000
17.14000000	3.64836349	0.67104163	-0.93928545	-0.00001039	0	0.00001087	-46.03586032	567.70847526	-41.77573492	0.84181370	0	-0.42136599	0	0.00003422	0	0	-4.38621485	0
17.15000000	3.61583779	0.63718172	-0.92140413	-0.00000306	0	0.00000290	-44.69941832	567.78097283	-42.35105200	0.83649986	0	-0.42106719	0	0.00000497	0	0	-4.33773024	0
17.16000000	3.57735524	0.61325893	-0.88913746	0.00000027	0	-0.00000053	-42.86943543	565.32333946	-41.69493308	0.83129031	0	-0.42082626	0	-0.00000502	0	0	-4.23207702	0
17.17000000	3.53620683	0.64824819	-0.85940262	0.00000103	0	-0.00000119	-40.33876697	560.07009207	-40.18210048	0.82630086	0	-0.42057490	0	-0.00000536	0	0	-4.01392194	0
17.18000000	3.51054600	0.65880808	-0.80753546	0.00000076	0	-0.00000082	-37.30102240	551.88662196	-38.36202501	0.82156651	0	-0.42019048	0	-0.00000300	0	0	-3.66970076	0
17.19000000	3.50993303	0.62734443	-0.73611113	0.00000034	0	-0.00000035	-34.16753273	540.96552653	-36.89895530	0.81684691	0	-0.41959889	0	-0.00000101	0	0	-3.27626925	0.00000000
17.20000000	3.52739860	0.58523495	-0.68496968	0.00000008	0	-0.00000007	-31.25749844	527.88854160	-36.31119335	0.81194664	0	-0.41887056	0	-0.00000003	0	0	-2.83537024	0
